HIERARCHY
ROOT Hips
{
	OFFSET -21.947001 39.810204 44.525997
	CHANNELS 6 Xposition Yposition Zposition Zrotation Xrotation Yrotation
	JOINT Chest
	{
		OFFSET -0.201599 0.334099 6.453201
		CHANNELS 6 Xposition Yposition Zposition Zrotation Xrotation Yrotation
		JOINT Chest2
		{
			OFFSET 0.000000 0.000000 3.568001
			CHANNELS 6 Xposition Yposition Zposition Zrotation Xrotation Yrotation
			JOINT Neck
			{
				OFFSET 0.000000 0.000000 8.296402
				CHANNELS 6 Xposition Yposition Zposition Zrotation Xrotation Yrotation
				JOINT Head
				{
					OFFSET 0.000000 0.000000 2.173901
					CHANNELS 6 Xposition Yposition Zposition Zrotation Xrotation Yrotation
					End Site
					{
						OFFSET 0.000000 0.000000 7.891998
					}
				}
			}
			JOINT LeftCollar
			{
				OFFSET 1.927601 0.221401 6.049000
				CHANNELS 6 Xposition Yposition Zposition Zrotation Xrotation Yrotation
				JOINT LeftShoulder
				{
					OFFSET 4.959700 0.000000 0.000000
					CHANNELS 6 Xposition Yposition Zposition Zrotation Xrotation Yrotation
					JOINT LeftElbow
					{
						OFFSET 0.000000 0.000000 -8.654202
						CHANNELS 6 Xposition Yposition Zposition Zrotation Xrotation Yrotation
						JOINT LeftWrist
						{
							OFFSET 0.000000 0.000000 -13.864101
							CHANNELS 6 Xposition Yposition Zposition Zrotation Xrotation Yrotation
							End Site
							{
								OFFSET 0.000000 0.000000 -2.173901
							}
						}
					}
				}
			}
			JOINT RightCollar
			{
				OFFSET -3.155701 -0.764999 6.687801
				CHANNELS 6 Xposition Yposition Zposition Zrotation Xrotation Yrotation
				JOINT RightShoulder
				{
					OFFSET -3.592899 0.000000 0.000000
					CHANNELS 6 Xposition Yposition Zposition Zrotation Xrotation Yrotation
					JOINT RightElbow
					{
						OFFSET 0.000000 0.000000 -10.352398
						CHANNELS 6 Xposition Yposition Zposition Zrotation Xrotation Yrotation
						JOINT RightWrist
						{
							OFFSET 0.000000 0.000000 -12.750301
							CHANNELS 6 Xposition Yposition Zposition Zrotation Xrotation Yrotation
							End Site
							{
								OFFSET 0.000000 0.000000 -2.173901
							}
						}
					}
				}
			}
		}
	}
	JOINT LeftHip
	{
		OFFSET 2.460600 -0.518101 -2.735500
		CHANNELS 6 Xposition Yposition Zposition Zrotation Xrotation Yrotation
		JOINT LeftKnee
		{
			OFFSET 0.000000 -0.000004 -17.005899
			CHANNELS 6 Xposition Yposition Zposition Zrotation Xrotation Yrotation
			JOINT LeftAnkle
			{
				OFFSET 0.000000 0.000000 -19.194401
				CHANNELS 6 Xposition Yposition Zposition Zrotation Xrotation Yrotation
				End Site
				{
					OFFSET 0.000000 -8.134600 0.000000
				}
			}
		}
	}
	JOINT RightHip
	{
		OFFSET -3.115499 -0.679600 -2.320301
		CHANNELS 6 Xposition Yposition Zposition Zrotation Xrotation Yrotation
		JOINT RightKnee
		{
			OFFSET 0.000000 -0.000004 -17.680401
			CHANNELS 6 Xposition Yposition Zposition Zrotation Xrotation Yrotation
			JOINT RightAnkle
			{
				OFFSET 0.000000 0.000000 -16.993797
				CHANNELS 6 Xposition Yposition Zposition Zrotation Xrotation Yrotation
				End Site
				{
					OFFSET 0.000000 -8.842300 0.000000
				}
			}
		}
	}
}
MOTION
Frames: 9
Frame Time: 0.041667
-22.856400 31.624102 16.488895 2523.606492 24.171831 -0.913499 -0.201599 0.334099 6.453195 -14.699670 22.422468 28.801036 -0.000001 -0.000001 3.567992 1.040291 -9.246371 -1.010193 -0.000003 0.000004 8.296391 191.895941 -181.425889 190.882450 -0.000003 0.000001 2.173895 3.189431 -2.234207 3.972315 1.927599 0.221408 6.048994 -24.878862 9.499540 10.044987 4.959704 0.000000 0.000007 160.664218 186.167024 64.209037 -0.000001 0.000002 -8.654199 29.355958 -47.185553 25.496451 -0.000001 -0.000002 -13.864098 4107.396002 -136.848168 142.132944 -3.155707 -0.764999 6.687795 47.558187 21.020503 -6.210949 -3.592900 0.000001 0.000007 -180.471793 177.420570 317.661662 -0.000008 -0.000004 -10.352394 -291.589901 -57.575489 -264.680868 0.000005 -0.000004 -12.750300 -17.620087 165.504937 -146.640173 2.460600 -0.518107 -2.735499 136.623919 4.366156 129.532980 0.000002 0.000001 -17.005899 -335.897775 179.041607 -48.594972 -0.000005 0.000003 -19.194401 622.784462 172.827582 241.678239 -3.115495 -0.679605 -2.320303 -126.175328 -24.281527 -85.987956 -0.000001 -0.000010 -17.680401 -761.832415 195.360513 -316.451106 -0.000001 0.000005 -16.993790 1084.508802 51.870782 -478.603267
-23.032801 31.796108 16.229694 2523.819157 23.803266 -1.810071 -0.201600 0.334098 6.453194 -15.133585 22.736023 29.310787 0.000001 0.000006 3.567992 1.358420 -9.319896 -0.940258 -0.000001 -0.000005 8.296400 191.832393 -181.772986 191.812202 -0.000003 -0.000004 2.173902 3.260324 -2.256593 3.967747 1.927597 0.221396 6.048999 -24.579684 9.333392 10.295112 4.959700 0.000000 0.000005 161.011587 185.436235 62.539043 0.000003 -0.000001 -8.654202 27.360339 -48.053704 25.231163 0.000002 0.000001 -13.864100 4107.889962 -137.920084 141.041658 -3.155705 -0.765003 6.687803 48.118956 21.688955 -5.771223 -3.592899 -0.000002 0.000004 -181.521867 177.544907 317.558171 -0.000010 -0.000010 -10.352398 -292.081456 -57.420164 -264.502272 0.000000 0.000002 -12.750300 -17.688853 165.215500 -146.134575 2.460601 -0.518102 -2.735495 137.269536 5.218933 129.344781 0.000000 -0.000007 -17.005898 -335.610224 179.126560 -48.442731 -0.000002 0.000005 -19.194401 622.543548 172.383634 241.732279 -3.115493 -0.679601 -2.320302 -127.130516 -23.053179 -86.825959 -0.000004 -0.000008 -17.680393 -760.619100 194.733392 -317.329359 0.000001 -0.000002 -16.993793 1084.686387 51.835815 -479.416333
-23.206701 31.977507 15.977495 2524.070508 23.458006 -2.729796 -0.201598 0.334095 6.453197 -15.595335 23.016996 29.772416 -0.000002 0.000007 3.567995 1.698787 -9.386339 -0.865162 -0.000003 0.000004 8.296400 191.758476 -182.148550 192.740931 -0.000003 -0.000009 2.173909 3.329491 -2.281943 3.953623 1.927598 0.221408 6.048994 -24.233067 9.161874 10.550655 4.959702 -0.000001 0.000009 161.401373 184.657088 60.818265 0.000002 0.000004 -8.654198 25.585834 -48.896730 25.210590 0.000001 -0.000000 -13.864098 4109.038308 -137.536173 141.137759 -3.155707 -0.764992 6.687805 48.693149 22.396665 -5.369024 -3.592893 -0.000003 0.000004 -182.479049 177.734937 317.428452 -0.000002 -0.000010 -10.352395 -292.484328 -57.279920 -264.358019 0.000004 -0.000000 -12.750308 -17.745516 164.945039 -145.633348 2.460604 -0.518109 -2.735499 137.876507 6.086268 129.162825 -0.000001 -0.000003 -17.005896 -335.333847 179.199316 -48.312424 -0.000006 0.000006 -19.194401 622.302087 171.961829 241.890439 -3.115498 -0.679609 -2.320300 -127.979454 -22.116018 -87.661960 -0.000002 -0.000015 -17.680397 -759.633805 194.034596 -318.132016 -0.000001 0.000004 -16.993793 1084.860037 51.841095 -480.116181
-23.378401 32.168701 15.733000 2524.379779 23.081422 -3.660360 -0.201598 0.334097 6.453199 -16.104871 23.316881 30.188910 0.000006 -0.000001 3.567991 2.058480 -9.445463 -0.785831 0.000000 0.000003 8.296394 191.673905 -182.555944 193.648294 0.000000 -0.000004 2.173905 3.394443 -2.305453 3.933369 1.927602 0.221407 6.049000 -23.847793 8.993415 10.811446 4.959702 0.000000 0.000001 161.752062 183.794544 59.121257 0.000002 0.000004 -8.654198 23.984325 -49.733063 25.126656 -0.000001 -0.000001 -13.864098 4109.888092 -137.434471 141.671975 -3.155706 -0.764996 6.687799 49.267930 23.127266 -5.026281 -3.592899 -0.000002 0.000005 -183.333725 177.990673 317.282996 -0.000002 -0.000004 -10.352395 -292.788189 -57.161604 -264.236468 0.000003 -0.000003 -12.750302 -17.783666 164.697444 -145.138911 2.460606 -0.518106 -2.735495 138.415669 6.761970 128.931814 0.000001 -0.000001 -17.005896 -334.990863 179.109130 -48.255529 -0.000003 0.000001 -19.194399 622.000138 171.569598 242.082559 -3.115492 -0.679607 -2.320298 -128.868621 -21.010353 -88.530016 -0.000004 -0.000007 -17.680397 -758.536548 193.394293 -318.904838 0.000001 -0.000002 -16.993795 1085.000029 51.880044 -480.904221
-23.548597 32.369808 15.496197 2524.697355 22.698279 -4.608596 -0.201596 0.334093 6.453195 -11.318463 26.057274 29.563736 0.000000 0.000006 3.567996 -3.162613 -9.193030 -1.919928 -0.000005 0.000002 8.296403 191.576752 -182.990713 194.517108 -0.000002 0.000002 2.173906 3.451862 -2.323110 3.912698 1.927597 0.221407 6.048995 -23.443410 8.831111 11.081249 4.959702 0.000000 -0.000003 162.292152 182.954198 57.533805 -0.000002 -0.000005 -8.654201 22.569062 -50.698483 25.064119 0.000001 0.000001 -13.864098 4110.612420 -137.107619 142.385825 -3.155707 -0.764996 6.687800 49.831359 23.859394 -4.755679 -3.592899 0.000000 0.000004 -184.084417 178.306828 317.127486 -0.000004 0.000000 -10.352391 -292.988068 -57.067286 -264.127650 0.000004 -0.000005 -12.750299 -17.806441 164.477253 -144.658462 2.460606 -0.518104 -2.735498 138.915679 7.420597 128.753929 -0.000001 -0.000002 -17.005901 -334.720906 178.974985 -48.217259 -0.000008 0.000002 -19.194397 621.675567 171.162410 242.432592 -3.115487 -0.679605 -2.320304 -129.730550 -19.822184 -89.455090 -0.000004 -0.000012 -17.680401 -757.395524 192.794780 -319.646050 -0.000001 0.000002 -16.993793 1085.102974 51.954073 -481.782420
-23.718103 32.581001 15.267197 2525.079190 22.322443 -5.535045 -0.201599 0.334090 6.453197 -11.996548 26.287491 29.889857 -0.000001 0.000006 3.567997 -2.651962 -9.255350 -1.808972 -0.000001 0.000001 8.296394 191.466076 -183.470547 195.329791 0.000004 -0.000001 2.173908 3.500772 -2.329194 3.896014 1.927601 0.221405 6.048993 -23.072912 7.980897 11.385689 4.959702 0.000005 0.000012 162.800332 181.284244 55.883074 0.000001 0.000001 -8.654200 21.622415 -51.433111 25.458861 0.000000 -0.000002 -13.864100 4111.431169 -136.993651 143.485062 -3.155705 -0.764997 6.687797 50.633702 21.687201 -4.711657 -3.592896 0.000001 0.000011 -185.204336 175.823700 317.245293 -0.000006 -0.000006 -10.352392 -293.072106 -56.999110 -264.024214 0.000001 -0.000009 -12.750309 -17.820186 164.283426 -144.197670 2.460599 -0.518106 -2.735496 139.360079 8.026848 128.525951 0.000000 -0.000008 -17.005894 -334.439557 178.797017 -48.275494 -0.000006 0.000002 -19.194399 621.397825 170.860092 242.770386 -3.115492 -0.679601 -2.320302 -130.526773 -18.792907 -90.344210 -0.000004 -0.000006 -17.680405 -756.576284 192.405418 -320.253418 0.000001 0.000004 -16.993797 1085.039808 51.960862 -482.814707
-23.888100 32.802307 15.045799 2525.490094 21.943342 -6.499749 -0.201594 0.334099 6.453202 -12.720673 26.469567 30.234078 -0.000002 0.000005 3.567994 -2.116981 -9.307437 -1.686799 -0.000003 -0.000002 8.296403 191.360208 -183.922801 196.069022 -0.000002 -0.000003 2.173909 3.531897 -2.255726 3.879571 1.927605 0.221397 6.049002 -22.580658 8.259855 11.669896 4.959701 -0.000005 -0.000001 163.134355 180.661960 53.993489 0.000000 0.000003 -8.654201 20.996102 -52.341976 26.026118 -0.000002 -0.000001 -13.864100 4111.517721 -136.485730 144.229539 -3.155702 -0.764997 6.687799 51.223823 22.159960 -4.708224 -3.592894 -0.000005 0.000011 -185.809354 176.052579 317.173740 -0.000004 0.000001 -10.352395 -292.856218 -56.934087 -263.902308 0.000005 -0.000005 -12.750300 -17.804789 164.169703 -143.919271 2.460606 -0.518106 -2.735497 139.780928 8.610581 128.262019 0.000001 -0.000007 -17.005892 -334.161650 178.549409 -48.385156 -0.000011 0.000000 -19.194401 620.993805 170.469022 243.170854 -3.115486 -0.679598 -2.320304 -131.292341 -17.798179 -91.271217 -0.000004 -0.000011 -17.680397 -755.645958 191.808514 -320.898488 0.000002 -0.000005 -16.993797 1085.039480 52.065542 -483.824318
-24.059601 33.033607 14.831194 2525.953454 21.558389 -7.383563 -0.201600 0.334093 6.453203 -13.450214 26.623748 30.465191 0.000005 0.000002 3.568001 -1.580134 -9.364492 -1.577591 -0.000003 -0.000003 8.296398 191.225366 -184.479530 196.737575 0.000000 -0.000000 2.173909 3.564994 -2.223673 3.880707 1.927601 0.221405 6.048997 -23.024534 8.551784 12.171560 4.959702 -0.000002 0.000004 164.444645 180.213585 51.999033 0.000001 0.000001 -8.654198 20.604456 -53.157423 26.674361 0.000000 -0.000003 -13.864100 4111.352485 -135.808531 145.027196 -3.155704 -0.765001 6.687802 51.802310 22.592773 -4.832460 -3.592901 0.000001 0.000003 -186.304461 176.337685 317.130382 -0.000004 -0.000012 -10.352390 -292.823378 -56.931099 -264.007521 0.000005 0.000002 -12.750299 -17.804225 163.922833 -143.574388 2.460605 -0.518105 -2.735501 140.156465 9.071023 128.035038 0.000002 -0.000004 -17.005896 -333.856286 178.250848 -48.506648 -0.000009 -0.000004 -19.194401 620.435751 169.764215 242.325877 -3.115493 -0.679603 -2.320305 -131.997190 -16.876188 -92.119793 -0.000004 -0.000014 -17.680397 -755.107684 191.451609 -321.463318 -0.000001 0.000001 -16.993788 1084.725947 52.129506 -485.079543
-24.233698 33.274910 14.622501 2526.455500 21.164123 -8.227881 -0.201595 0.334100 6.453205 -14.193916 26.738094 30.639945 0.000003 0.000001 3.567991 -1.028797 -9.419032 -1.461236 -0.000003 0.000001 8.296399 191.070553 -185.066913 197.317171 0.000002 0.000004 2.173903 3.594347 -2.168676 3.894978 1.927597 0.221404 6.048994 -22.127132 8.831339 12.395461 4.959702 -0.000001 0.000012 164.513876 179.525512 50.181280 0.000001 -0.000005 -8.654195 20.621130 -54.101754 27.632403 0.000003 -0.000004 -13.864099 4111.362102 -135.501391 146.229391 -3.155708 -0.765001 6.687801 52.341280 22.958612 -5.080470 -3.592893 0.000001 0.000014 -186.675791 176.691598 317.119154 -0.000004 -0.000007 -10.352391 -292.402256 -56.951347 -263.833078 0.000007 0.000001 -12.750301 -17.810794 163.837701 -143.223070 2.460607 -0.518099 -2.735495 140.474137 9.528091 127.832946 -0.000003 -0.000007 -17.005905 -333.585319 177.928873 -48.718110 -0.000005 0.000003 -19.194401 619.960589 169.294230 242.439340 -3.115495 -0.679596 -2.320300 -132.644077 -16.077082 -92.922989 -0.000004 -0.000014 -17.680405 -754.875458 191.228604 -321.972358 0.000001 0.000005 -16.993792 1084.180843 52.161441 -486.512517
